<svg xmlns="http://www.w3.org/2000/svg" viewBox="0 0 100 100" id="1559962589" class="svg u_1559962589" data-icon-name="general_envelope_phone" fill='white' alt="Contact icon"> <path d="M81.07,26.95a3.55,3.55,0,0,0-4.94,0L67.3,35.82a3.52,3.52,0,0,0,.06,5l2.93,2.8a3.48,3.48,0,0,1,1.07,2.92c-.18,1.44-1.1,3.85-4.44,7.2a25.63,25.63,0,0,1-2.11,1.9V38.83a5,5,0,0,0-5-5h-42a5,5,0,0,0-5,5V65.24a5,5,0,0,0,5,5H42.67A17.36,17.36,0,0,0,53.48,74h.29c11.26-.18,21-10.6,21.88-11.53S87,51.88,87.17,40.63C87.25,35.51,85.2,30.91,81.07,26.95ZM37.24,36.41H59.8a2.41,2.41,0,0,1,.54.06L40.09,50.34a2.25,2.25,0,0,1-2.53,0L17.31,36.47a2.42,2.42,0,0,1,.54-.06ZM15.42,65.24V38.83a2.42,2.42,0,0,1,0-.48L36.09,52.48a4.86,4.86,0,0,0,5.46,0L62.17,38.35a2.42,2.42,0,0,1,0,.48V57.4a7.65,7.65,0,0,1-2.5.83,3.48,3.48,0,0,1-2.92-1.07L54,54.22a3.52,3.52,0,0,0-5-.06L40.13,63a3.55,3.55,0,0,0-.28,4.67h-22A2.42,2.42,0,0,1,15.42,65.24Zm58.43-4.61-.09.1c-.1.11-9.65,10.56-20,10.72-4.36.07-8.32-1.72-11.76-5.31a.93.93,0,0,1,0-1.31L50.79,56a.92.92,0,0,1,.66-.27h0a.92.92,0,0,1,.66.29l2.8,2.93A6.08,6.08,0,0,0,60,60.8c2.68-.33,5.61-2.08,8.72-5.18s4.85-6,5.18-8.72a6.08,6.08,0,0,0-1.86-5.12L69.15,39a.93.93,0,0,1,0-1.33L78,28.82a.93.93,0,0,1,1.31,0c3.59,3.44,5.37,7.4,5.31,11.76C84.42,51,74,60.53,73.86,60.62Z" id="1750506475"></path> 
</svg>